<svg xmlns="http://www.w3.org/2000/svg" viewBox="0 0 180 100">
  <defs>
    <linearGradient id="a" x1="0" x2="64" y1="-21.333" y2="85.333" gradientTransform="matrix(2.34375 0 0 2.34375 15.002 -25)" gradientUnits="userSpaceOnUse">
      <stop offset="0" stop-color="#2383ae"/>
      <stop offset="1" stop-color="#6dd7b9"/>
    </linearGradient>
  </defs>
  <path fill="url(#a)" fill-rule="evenodd" d="M52.5 35C57.5 15.001 70.001 5 90 5c30 0 33.75 22.5 48.75 26.25C148.75 33.751 157.5 30 165 20c-5 20-17.5 30-37.5 30-30 0-33.75-22.5-48.75-26.25C68.75 21.25 60 25 52.5 35zM15 80c5-19.999 17.501-30 37.5-30 30 0 33.75 22.5 48.75 26.25C111.251 78.751 120 75 127.5 65 122.501 84.999 110 95 90 95c-30 0-33.75-22.5-48.75-26.25C31.25 66.25 22.5 70 15 80z"/>
</svg>
