<svg xmlns="http://www.w3.org/2000/svg" version="1.0" viewBox="0 0 1280 360">
  <defs>
    <linearGradient id="a" x1="0" x2="64" y1="-21.333" y2="85.333" gradientTransform="translate(66.67 55.469) scale(5.20832)" gradientUnits="userSpaceOnUse">
      <stop offset="0" stop-color="#2383ae"/>
      <stop offset="1" stop-color="#6dd7b9"/>
    </linearGradient>
  </defs>
  <path d="M706.843 11.202c-18.338 3.893-38.152 15.262-55.324 31.692-2.72 2.492-4.895 4.828-4.895 5.139 0 .311 4.04 4.36 9.014 8.877l8.935 8.331 6.45-6.073c16.472-15.651 32.479-24.45 44.445-24.528 8.003 0 12.432 3.426 15.54 12.225 1.088 3.115 1.399 6.385 1.399 16.741 0 20.635-4.43 42.282-13.52 66.654l-3.963 10.434 4.973 7.553c2.642 4.205 6.371 9.967 8.236 12.848 1.865 2.96 3.497 5.295 3.575 5.295.31 0 5.594-13.704 8.158-21.413 6.294-18.455 11.19-36.987 13.987-52.95 2.097-11.602 2.952-36.441 1.631-44.461-4.74-28.11-23.155-41.892-48.641-36.364zm-147.633.234c-18.105 2.803-29.915 13.003-34.189 29.278-2.875 11.057-3.497 32.47-1.243 40.1 2.797 9.111 10.101 13.316 17.016 9.734 4.896-2.492 6.683-9.188 7.538-27.331 1.01-22.66 4.118-28.421 15.307-28.421 7.77 0 16.395 4.204 32.79 15.884 28.905 20.713 57.266 53.261 82.364 94.608 18.026 29.667 35.976 67.9 43.746 93.129 9.79 31.691 12.51 57.154 7.848 73.35-6.527 22.737-29.139 17.91-64.804-13.783-8.78-7.864-19.503-19.31-26.651-28.577l-4.352-5.684h-10.1c-5.518 0-12.433-.233-15.308-.545-3.652-.311-5.284-.156-5.284.39 0 1.09 14.375 20.323 21.29 28.576 12.355 14.64 30.46 31.459 42.97 39.868 17.87 12.147 31.624 17.364 45.455 17.364 34.5 0 50.35-34.495 40.172-87.21-6.372-32.938-23.078-75.764-43.98-112.907-34.266-60.735-73.66-106.91-108.393-126.844-15.074-8.643-30.926-12.77-42.192-10.98z"/>
  <path d="M608.783 88.68c-17.25 20.556-28.128 37.765-30.925 48.744-1.165 4.594-1.165 5.061.156 7.786 1.864 3.816 7.692 7.398 12.121 7.476 2.642.077 3.963-.39 6.06-2.18 3.497-2.96 7.693-8.644 12.822-17.287 2.253-3.816 8.469-13.082 13.83-20.479 5.362-7.397 9.79-13.704 9.79-14.016 0-.934-16.783-16.43-17.715-16.43-.389 0-3.186 2.881-6.139 6.385z"/>
  <path d="M533.18 116.867c-20.824 5.606-47.865 16.975-62.084 26.163-5.905 3.816-11.966 9.422-14.919 13.705-8.236 11.991-8.236 34.027 0 46.953 8.159 12.692 27.04 23.282 59.908 33.638 22.767 7.164 62.006 15.496 81.199 17.131 15.307 1.402 49.107 1.246 76.924-.234 29.06-1.557 39.706-3.036 39.55-5.372-.077-.623-1.631-5.762-3.496-11.525l-3.419-10.434-6.216.545c-45.067 3.582-72.651 4.517-89.435 3.115-34.422-2.881-54.857-6.463-85.005-14.872-33.723-9.422-52.06-21.803-52.06-35.274 0-9.5 9.634-19 28.36-28.032 9.17-4.36 14.608-6.151 27.196-8.955 15.23-3.348 21.057-5.528 24.942-9.266 3.186-3.114 3.42-3.582 3.42-7.397 0-10.668-8.859-14.172-24.865-9.889zm231.94 9.422c-5.362 2.725-9.014 9.266-7.849 13.938 1.244 4.983 5.828 8.176 17.406 12.225 9.324 3.27 16.24 7.086 21.368 11.602 4.662 4.283 8.314 10.512 8.314 14.405 0 11.836-15.075 24.295-44.057 36.598-4.818 2.024-8.78 4.049-8.78 4.438 0 .39 2.02 5.295 4.428 10.823 5.051 11.525 3.42 10.746 15.385 6.775 19.27-6.463 39.24-19.856 48.875-32.782 7.304-9.889 9.79-16.352 9.79-25.93 0-17.208-10.8-30.601-36.442-45.084-12.743-7.164-23-9.734-28.439-7.008z"/>
  <path d="M554.081 154.944c-3.34 2.258-4.584 4.672-4.584 9.188 0 7.864 7.149 24.372 19.659 45.085l6.371 10.512 12.044.623c6.605.311 13.21.467 14.608.389l2.486-.234-4.118-6.23c-5.905-8.876-9.013-14.716-15.152-28.42-8.236-18.455-13.52-26.709-19.503-30.446-4.351-2.803-8.159-2.96-11.81-.467zm-19.503 108c-7.46 2.259-10.956 7.242-12.354 17.52-1.088 8.41-.466 24.295 1.243 31.536 6.06 25.54 22.145 39.167 44.678 37.921 11.267-.623 21.135-4.594 36.831-14.872 8.081-5.295 26.108-19.778 26.108-20.946 0-.545-3.652-4.75-8.081-9.422L615 296.116l-1.943 1.557c-1.088.779-4.662 3.815-8.003 6.696-15.618 13.627-31.08 21.647-41.338 21.647-5.983-.077-10.256-2.725-13.053-8.176-2.254-4.438-2.331-4.905-2.331-15.106.077-5.84.388-15.184.699-20.712.621-9.578.621-10.356-1.01-13.471-2.564-4.984-8.004-7.242-13.443-5.606z"/>
  <g fill="#860038">
    <path d="M638.663 167.226a4.863 4.873 0 00-4.857 4.867v4.867h9.713v-4.867a4.863 4.873 0 00-4.856-4.867z"/>
    <path d="M669.899 143.373a4.859 4.869 0 00-5.144.595c-6.068 4.888-16.99 4.886-23.049.003a4.859 4.869 0 00-6.09-.003c-6.064 4.888-16.99 4.886-23.048.003a4.857 4.867 0 00-7.9 3.79l-.003 38.934c0 15.254 12.203 27.915 32.64 33.872a4.881 4.892 0 002.714 0c20.438-5.957 32.638-18.616 32.638-33.872v-38.933a4.866 4.866 0 00-2.759-4.39zm-16.667 48.187a4.856 4.867 0 01-4.856 4.866H628.95a4.856 4.867 0 01-4.856-4.866v-9.734a4.856 4.867 0 014.856-4.866v-4.867c0-5.365 4.355-9.733 9.713-9.733s9.713 4.368 9.713 9.733v4.867a4.856 4.867 0 014.856 4.866v9.734z"/>
    <path d="M638.663 184.26a2.428 2.433 0 100 4.867 2.428 2.433 0 000-4.867z"/>
  </g>
  <g transform="matrix(5 0 0 5 234.68 -377.98)">
    <circle cx="169.064" cy="116.023" r="24" fill="#31C48D"/>
    <path fill="#DEF7EC" fill-rule="evenodd" d="M148.631 128.62l2.833-20.597 5.6-2.546v3.796l6-2.625v-3.898l6-2.727v40c-8.635 0-16.205-4.56-20.433-11.403zm11.433-13.597a2 2 0 012 2v8.312l-4 .75v-9.062a2 2 0 012-2z" clip-rule="evenodd"/>
    <path fill="#014737" fill-rule="evenodd" d="M189.496 128.62c-4.228 6.843-11.798 11.403-20.432 11.403v-40l6 2.727v3.898l6 2.625v-3.796l5.6 2.546 2.832 20.597zm-11.432-13.597a2 2 0 00-2 2v8.312l4 .75v-9.062a2 2 0 00-2-2z" clip-rule="evenodd"/>
  </g>
  <path fill="url(#a)" fill-rule="evenodd" d="M150 188.801c11.11-44.443 38.889-66.666 83.332-66.666 66.668 0 75 50 108.333 58.334 22.223 5.556 41.667-2.778 58.335-25-11.112 44.443-38.891 66.666-83.335 66.666-66.665 0-74.999-50-108.333-58.334-22.222-5.556-41.666 2.778-58.332 25zm-83.334 100c11.11-44.443 38.89-66.666 83.334-66.666 66.666 0 75 50 108.332 58.334 22.224 5.556 41.668-2.778 58.333-25-11.109 44.442-38.889 66.666-83.333 66.666-66.666 0-75-50-108.332-58.334-22.224-5.556-41.668 2.777-58.334 25z"/>
</svg>
